<?xml version="1.0" standalone="no"?>
<!DOCTYPE svg PUBLIC "-//W3C//DTD SVG 20010904//EN"
 "http://www.w3.org/TR/2001/REC-SVG-20010904/DTD/svg10.dtd">
<svg version="1.0" xmlns="http://www.w3.org/2000/svg"
 width="788.000000pt" height="788.000000pt" viewBox="0 0 788.000000 788.000000"
 preserveAspectRatio="xMidYMid meet">
<metadata>
Created by potrace 1.14, written by Peter Selinger 2001-2017
</metadata>
<g transform="translate(0.000000,788.000000) scale(0.100000,-0.100000)"
fill="#000000" stroke="none">
<path d="M3589 7676 c-2 -2 -42 -7 -89 -10 -161 -13 -234 -23 -385 -52 -71
-14 -157 -32 -190 -41 -33 -8 -67 -16 -75 -18 -8 -2 -69 -20 -134 -40 -363
-111 -737 -294 -1056 -518 -63 -44 -117 -83 -120 -86 -3 -4 -25 -22 -50 -41
-25 -19 -50 -39 -56 -45 -6 -5 -36 -30 -65 -54 -73 -61 -322 -311 -390 -391
-30 -35 -59 -70 -66 -77 -23 -26 -156 -205 -214 -290 -40 -59 -66 -88 -82 -90
-68 -10 -187 -62 -267 -116 -51 -35 -154 -135 -191 -187 -85 -117 -139 -329
-116 -455 3 -11 -1 -23 -7 -27 -8 -6 -8 -8 1 -8 10 0 30 -93 26 -127 0 -7 4
-13 9 -13 6 0 8 -9 5 -20 -3 -11 -2 -20 3 -20 4 0 20 -37 35 -82 15 -46 31
-90 35 -98 4 -8 1 -49 -6 -90 -23 -118 -53 -326 -61 -425 -15 -178 -8 -641 12
-755 2 -14 6 -45 9 -70 14 -126 63 -361 108 -518 17 -59 30 -111 29 -117 -7
-45 -6 -285 0 -285 5 0 9 -10 9 -23 0 -12 9 -47 21 -77 11 -30 21 -62 22 -70
1 -8 8 -21 15 -28 7 -8 9 -19 5 -25 -3 -7 -3 -9 2 -5 11 10 67 -70 59 -84 -4
-6 -3 -8 3 -5 15 9 57 -39 48 -54 -5 -8 -4 -10 4 -5 14 9 69 -35 64 -51 -3 -7
4 -11 16 -8 29 5 47 -20 30 -42 -7 -10 -10 -15 -5 -11 12 10 43 -25 38 -42 -3
-13 -3 -13 7 0 8 11 7 18 -4 26 -8 6 -12 14 -8 17 3 4 1 7 -6 7 -7 0 -9 5 -6
10 4 7 14 2 26 -12 10 -13 22 -27 27 -33 5 -6 3 -15 -7 -22 -14 -10 -13 -11 5
-7 17 5 25 -1 35 -25 8 -17 18 -31 22 -31 5 0 5 -10 2 -22 -4 -16 -3 -19 3 -9
7 9 12 10 16 2 4 -6 4 -11 -1 -11 -4 0 0 -5 10 -11 9 -6 15 -14 12 -19 -3 -4
2 -10 10 -14 8 -3 15 -12 15 -21 0 -8 5 -15 11 -15 5 0 7 -4 4 -10 -3 -5 -2
-10 4 -10 5 0 27 -24 48 -52 21 -29 43 -60 50 -68 43 -53 123 -150 148 -180
48 -57 315 -321 380 -377 258 -221 576 -424 888 -567 43 -20 80 -36 83 -36 2
0 23 -9 47 -20 131 -60 535 -184 671 -204 21 -4 41 -8 45 -11 4 -2 29 -6 56
-10 27 -3 58 -7 69 -10 12 -2 44 -7 71 -10 28 -4 61 -8 75 -10 163 -21 576
-28 750 -12 113 9 299 35 382 53 37 7 82 16 100 19 18 3 60 13 93 22 33 8 71
17 83 19 57 11 388 127 497 174 369 161 709 375 991 622 126 111 342 334 434
448 93 116 120 146 105 121 -5 -10 -4 -12 4 -7 6 4 9 12 6 17 -6 8 1 19 36 58
8 10 19 25 22 35 4 9 11 14 17 11 5 -3 8 0 5 7 -3 7 6 26 20 42 14 16 25 33
25 38 0 5 5 6 12 2 7 -5 8 -3 3 6 -5 8 -2 18 9 26 10 7 18 16 19 21 1 4 5 7 8
6 4 -1 6 5 5 15 -1 12 6 17 25 17 18 -1 25 4 26 20 1 11 -1 14 -4 8 -3 -7 -12
-13 -21 -13 -12 0 -11 4 7 16 18 13 25 14 31 4 5 -7 6 -20 2 -29 -6 -17 -4
-16 18 13 10 13 10 17 3 12 -7 -4 -13 -2 -13 3 0 6 5 11 11 11 5 0 7 5 3 12
-4 7 -3 8 4 4 7 -4 12 -2 12 3 0 8 7 7 19 -1 11 -7 18 -15 15 -19 -6 -10 24
-5 33 6 4 4 3 5 -4 1 -14 -8 -27 10 -13 19 5 3 10 12 10 18 0 7 -7 3 -15 -7
-8 -11 -18 -16 -22 -12 -4 4 3 16 17 26 23 18 25 18 32 2 5 -12 7 -8 7 13 1
23 4 27 11 15 8 -12 10 -10 10 8 0 13 4 20 10 17 6 -3 10 -3 10 2 0 4 16 25
35 46 24 26 41 37 52 33 12 -5 13 -4 5 7 -9 10 -7 19 8 34 10 12 16 24 12 29
-4 4 2 4 13 0 15 -6 17 -4 8 5 -14 14 -6 39 12 33 9 -4 11 2 8 20 -4 18 0 28
11 32 9 3 13 11 9 17 -4 7 1 8 13 4 17 -6 17 -6 2 6 -15 12 -15 14 0 25 9 7
11 10 3 6 -8 -4 -7 3 5 22 11 15 13 25 7 21 -7 -5 -13 -4 -13 2 0 6 4 11 9 11
5 0 7 10 3 22 -4 15 -2 19 7 13 10 -6 11 -2 6 15 -6 19 -4 22 11 16 16 -5 17
-4 4 6 -11 10 -15 33 -15 85 0 52 3 69 11 62 7 -6 17 -1 30 14 l19 22 -21 -18
c-17 -14 -23 -15 -31 -5 -11 15 -11 28 1 47 6 9 5 12 -1 8 -6 -4 -14 1 -17 10
-4 9 -2 20 5 23 8 6 8 9 -1 12 -7 2 -13 18 -15 36 -1 18 -4 35 -7 38 -7 6 8
56 28 97 7 15 10 25 5 22 -5 -3 -3 19 5 47 23 90 67 342 79 448 3 30 8 71 10
90 3 19 8 149 10 289 3 139 8 257 10 262 3 4 1 11 -5 14 -8 5 -7 12 2 23 10
12 10 14 1 8 -18 -10 -16 4 5 28 16 20 16 20 -2 6 -18 -14 -19 -13 -14 13 3
15 2 30 -2 32 -4 3 -7 19 -6 37 2 18 -1 44 -6 57 -6 15 -4 29 4 39 10 12 10
14 1 8 -10 -5 -13 4 -15 36 -1 48 -2 56 -11 78 -8 22 -18 98 -20 150 -1 31 2
44 10 43 7 -2 10 3 7 11 -9 23 15 58 34 52 16 -6 16 -5 0 7 -15 12 -15 14 0
25 9 7 11 10 5 7 -18 -8 -16 3 2 22 8 8 12 20 8 26 -4 6 -1 8 8 5 10 -4 15 1
17 15 1 17 -1 19 -8 7 -14 -22 -12 4 2 37 7 15 15 30 18 33 3 3 6 12 6 20 0
36 27 146 37 152 8 5 8 8 1 8 -6 0 -10 33 -9 93 4 216 -87 396 -276 549 -87
70 -231 133 -329 145 -45 5 -47 7 -109 100 -68 101 -187 257 -273 357 -88 103
-328 339 -428 420 -52 43 -104 86 -115 95 -178 147 -558 370 -820 481 -188 80
-518 186 -665 214 -14 2 -61 11 -105 20 -44 8 -100 18 -125 21 -24 4 -47 8
-50 10 -3 1 -45 6 -95 10 -49 4 -94 10 -99 13 -10 6 -551 13 -557 8z"/>
<path d="M7646 5358 c3 -5 10 -6 15 -3 13 9 11 12 -6 12 -8 0 -12 -4 -9 -9z"/>
<path d="M7650 5336 c0 -2 8 -10 18 -17 15 -13 16 -12 3 4 -13 16 -21 21 -21
13z"/>
<path d="M7686 5302 c-3 -5 1 -9 9 -9 8 0 12 4 9 9 -3 4 -7 8 -9 8 -2 0 -6 -4
-9 -8z"/>
<path d="M7662 5284 c10 -10 20 -16 22 -13 3 3 -5 11 -17 18 -21 13 -21 12 -5
-5z"/>
<path d="M7735 5261 c-3 -5 -2 -12 3 -15 5 -3 9 1 9 9 0 17 -3 19 -12 6z"/>
<path d="M7669 5217 c6 -8 7 -18 3 -22 -4 -5 -1 -5 6 -1 10 6 10 11 1 22 -6 8
-14 14 -16 14 -3 0 0 -6 6 -13z"/>
<path d="M7720 5205 c0 -2 6 -8 13 -14 10 -8 14 -7 14 2 0 8 -6 14 -14 14 -7
0 -13 -1 -13 -2z"/>
<path d="M7680 5175 c-7 -8 -9 -15 -5 -15 4 0 1 -8 -6 -17 -13 -16 -12 -17 4
-4 9 8 15 16 12 19 -3 3 0 11 6 19 6 7 9 13 6 13 -2 0 -10 -7 -17 -15z"/>
<path d="M7646 5163 c-6 -14 -5 -15 5 -6 7 7 10 15 7 18 -3 3 -9 -2 -12 -12z"/>
<path d="M7710 5158 c0 -4 4 -8 9 -8 6 0 12 4 15 8 3 5 -1 9 -9 9 -8 0 -15 -4
-15 -9z"/>
<path d="M7746 5142 c-2 -4 4 -8 14 -8 10 0 16 4 14 8 -3 4 -9 8 -14 8 -5 0
-11 -4 -14 -8z"/>
<path d="M7645 5099 c-4 -6 -5 -12 -2 -15 2 -3 7 2 10 11 7 17 1 20 -8 4z"/>
<path d="M7761 5096 c-9 -11 -9 -16 1 -22 7 -4 10 -4 6 1 -4 4 -3 14 3 22 6 7
9 13 6 13 -2 0 -10 -6 -16 -14z"/>
<path d="M7659 5073 c-13 -17 -13 -17 6 -3 11 8 22 16 24 17 2 2 0 3 -6 3 -6
0 -17 -8 -24 -17z"/>
<path d="M7680 5055 c-7 -8 -9 -15 -5 -15 4 0 1 -8 -6 -17 -13 -16 -12 -17 4
-4 9 8 15 16 12 19 -3 3 0 11 6 19 6 7 9 13 6 13 -2 0 -10 -7 -17 -15z"/>
<path d="M7716 5061 c-3 -5 2 -15 12 -22 15 -12 16 -12 5 2 -7 9 -10 19 -6 22
3 4 4 7 0 7 -3 0 -8 -4 -11 -9z"/>
<path d="M7747 5059 c7 -9 10 -19 6 -22 -3 -4 -1 -7 5 -7 17 0 15 16 -5 31
-16 12 -17 12 -6 -2z"/>
<path d="M7641 5036 c-9 -11 -9 -16 1 -22 7 -4 10 -4 6 1 -4 4 -3 14 3 22 6 7
9 13 6 13 -2 0 -10 -6 -16 -14z"/>
<path d="M7689 5003 c-13 -16 -12 -17 4 -4 9 7 17 15 17 17 0 8 -8 3 -21 -13z"/>
<path d="M7779 5018 c-5 -18 -6 -38 -1 -34 7 8 12 36 6 36 -2 0 -4 -1 -5 -2z"/>
<path d="M7615 5000 c-3 -5 -1 -10 4 -10 6 0 11 5 11 10 0 6 -2 10 -4 10 -3 0
-8 -4 -11 -10z"/>
<path d="M7783 4924 c9 -11 14 -23 11 -26 -3 -3 -1 -8 3 -11 5 -3 9 5 9 18 0
14 -2 22 -5 20 -2 -3 -11 1 -20 7 -12 10 -12 7 2 -8z"/>
<path d="M7590 4921 c0 -6 4 -13 10 -16 6 -3 7 1 4 9 -7 18 -14 21 -14 7z"/>
<path d="M7624 4918 c-4 -7 -3 -8 5 -4 6 4 20 2 29 -6 15 -12 16 -11 3 5 -16
20 -27 22 -37 5z"/>
<path d="M7739 4913 c-12 -16 -12 -17 2 -6 9 7 20 9 24 5 5 -4 5 -1 1 6 -9 16
-11 15 -27 -5z"/>
<path d="M7709 4877 c6 -8 7 -18 3 -22 -4 -5 -1 -5 6 -1 10 6 10 11 1 22 -6 8
-14 14 -16 14 -3 0 0 -6 6 -13z"/>
<path d="M7815 4869 c-4 -6 -5 -12 -2 -15 2 -3 7 2 10 11 7 17 1 20 -8 4z"/>
<path d="M7639 4853 c-13 -16 -12 -17 4 -4 16 13 21 21 13 21 -2 0 -10 -8 -17
-17z"/>
<path d="M7670 4866 c0 -2 7 -7 16 -10 8 -3 12 -2 9 4 -6 10 -25 14 -25 6z"/>
<path d="M7576 4833 c-6 -14 -5 -15 5 -6 7 7 10 15 7 18 -3 3 -9 -2 -12 -12z"/>
<path d="M7600 4815 c-7 -9 -11 -17 -9 -20 3 -2 10 5 17 15 14 24 10 26 -8 5z"/>
<path d="M7713 4823 c4 -3 1 -13 -6 -22 -11 -14 -10 -14 5 -2 16 12 16 31 1
31 -4 0 -3 -3 0 -7z"/>
<path d="M7662 4804 c10 -10 20 -16 22 -13 3 3 -5 11 -17 18 -21 13 -21 12 -5
-5z"/>
<path d="M7633 4793 c0 -11 7 -20 14 -20 10 0 10 4 1 16 -7 9 -13 18 -15 20
-1 2 -1 -5 0 -16z"/>
<path d="M7738 4770 c13 -15 65 -23 57 -9 -3 4 -13 6 -23 4 -9 -1 -24 2 -32 8
-12 9 -13 9 -2 -3z"/>
<path d="M7649 4723 c-13 -16 -12 -17 4 -4 16 13 21 21 13 21 -2 0 -10 -8 -17
-17z"/>
<path d="M7534 4718 c-4 -5 -3 -12 0 -15 3 -4 6 -1 6 6 0 7 4 10 9 6 5 -3 12
-2 15 3 3 5 -2 9 -10 9 -8 0 -17 -4 -20 -9z"/>
<path d="M7600 4726 c0 -2 8 -10 18 -17 15 -13 16 -12 3 4 -13 16 -21 21 -21
13z"/>
<path d="M7559 4693 c-13 -16 -12 -17 4 -4 16 13 21 21 13 21 -2 0 -10 -8 -17
-17z"/>
<path d="M7670 4702 c0 -5 10 -17 23 -28 22 -19 22 -19 4 2 -9 11 -14 24 -10
27 3 4 1 7 -5 7 -7 0 -12 -4 -12 -8z"/>
<path d="M7593 4685 c0 -8 4 -12 9 -9 5 3 6 10 3 15 -9 13 -12 11 -12 -6z"/>
<path d="M7530 4681 c0 -6 4 -13 10 -16 6 -3 7 1 4 9 -7 18 -14 21 -14 7z"/>
<path d="M7640 4686 c0 -2 8 -10 18 -17 15 -13 16 -12 3 4 -13 16 -21 21 -21
13z"/>
<path d="M7519 4648 c-7 -25 -3 -40 14 -55 22 -18 22 -18 6 2 -9 11 -15 28
-14 38 3 13 -2 26 -6 15z"/>
<path d="M7613 4633 c0 -10 4 -10 16 -1 9 7 18 13 20 15 2 1 -5 1 -16 0 -11 0
-20 -7 -20 -14z"/>
<path d="M7717 4635 c-4 -8 -3 -16 1 -19 4 -3 9 4 9 15 2 23 -3 25 -10 4z"/>
<path d="M7664 4622 c4 -3 14 -7 22 -8 9 -1 13 0 10 4 -4 3 -14 7 -22 8 -9 1
-13 0 -10 -4z"/>
<path d="M7654 4560 c0 -13 4 -16 10 -10 7 7 7 13 0 20 -6 6 -10 3 -10 -10z"/>
<path d="M7553 4552 c-8 -14 -8 -19 1 -19 7 0 13 9 13 19 1 10 1 18 0 18 -1 0
-7 -8 -14 -18z"/>
<path d="M7679 4533 c-13 -16 -12 -17 4 -4 9 7 17 15 17 17 0 8 -8 3 -21 -13z"/>
<path d="M7714 4514 c1 -8 4 -15 7 -16 2 -2 3 -1 2 1 -2 2 2 9 7 16 7 8 5 12
-4 12 -8 0 -13 -6 -12 -13z"/>
<path d="M7552 4491 c7 -9 13 -18 15 -20 1 -2 1 5 0 16 0 11 -7 20 -14 20 -10
0 -10 -4 -1 -16z"/>
<path d="M7659 4473 c-13 -16 -12 -17 4 -4 9 7 17 15 17 17 0 8 -8 3 -21 -13z"/>
<path d="M7586 4462 c-3 -5 1 -9 9 -9 8 0 15 4 15 9 0 4 -4 8 -9 8 -6 0 -12
-4 -15 -8z"/>
<path d="M7679 4453 c-12 -16 -12 -17 2 -6 9 7 20 9 24 5 5 -4 5 -1 1 6 -9 16
-11 15 -27 -5z"/>
<path d="M7599 4438 c-4 -10 -4 -77 0 -72 6 5 10 74 4 74 -2 0 -3 -1 -4 -2z"/>
<path d="M7626 4422 c-2 -4 4 -8 14 -8 10 0 16 4 14 8 -3 4 -9 8 -14 8 -5 0
-11 -4 -14 -8z"/>
<path d="M7676 4422 c-3 -5 1 -9 9 -9 8 0 12 4 9 9 -3 4 -7 8 -9 8 -2 0 -6 -4
-9 -8z"/>
<path d="M7550 4376 c7 -7 13 -7 20 0 6 6 3 10 -10 10 -13 0 -16 -4 -10 -10z"/>
<path d="M7610 4299 c0 -5 5 -7 10 -4 6 3 10 8 10 11 0 2 -4 4 -10 4 -5 0 -10
-5 -10 -11z"/>
<path d="M7436 2921 c-3 -5 2 -15 12 -22 15 -12 16 -12 5 2 -7 9 -10 19 -6 22
3 4 4 7 0 7 -3 0 -8 -4 -11 -9z"/>
<path d="M7473 2886 c0 -15 22 -15 34 0 4 5 4 6 -1 2 -5 -4 -14 -3 -21 2 -8 7
-12 5 -12 -4z"/>
<path d="M7454 2846 c1 -8 5 -18 8 -22 4 -3 5 1 4 10 -1 8 -5 18 -8 22 -4 3
-5 -1 -4 -10z"/>
<path d="M7515 2793 c1 -10 -5 -27 -14 -38 -16 -20 -16 -20 6 -2 20 17 24 39
11 53 -4 3 -5 -2 -3 -13z"/>
<path d="M7470 2776 c7 -7 13 -7 20 0 6 6 3 10 -10 10 -13 0 -16 -4 -10 -10z"/>
<path d="M7510 2718 c0 -4 4 -8 9 -8 6 0 12 4 15 8 3 5 -1 9 -9 9 -8 0 -15 -4
-15 -9z"/>
<path d="M7475 2660 c3 -13 0 -29 -5 -35 -7 -8 -5 -12 4 -12 14 0 17 50 4 63
-4 4 -5 -4 -3 -16z"/>
<path d="M7560 2655 c-7 -9 -11 -17 -9 -20 3 -2 10 5 17 15 14 24 10 26 -8 5z"/>
<path d="M7473 2573 c0 -9 4 -10 14 -2 7 6 13 12 13 14 0 1 -6 2 -13 2 -8 0
-14 -6 -14 -14z"/>
<path d="M7520 2580 c-9 -6 -10 -10 -3 -10 6 0 15 5 18 10 8 12 4 12 -15 0z"/>
<path d="M7553 2553 c0 -11 7 -20 14 -20 10 0 10 4 1 16 -7 9 -13 18 -15 20
-1 2 -1 -5 0 -16z"/>
<path d="M7503 2524 c9 -11 15 -23 12 -26 -3 -3 5 -13 17 -24 23 -19 23 -19 5
2 -9 11 -15 23 -12 26 3 3 -5 13 -17 24 -23 19 -23 19 -5 -2z"/>
<path d="M7453 2478 c0 -13 1 -17 4 -10 3 6 10 9 16 5 7 -4 6 1 -2 10 -17 21
-17 21 -18 -5z"/>
<path d="M7569 2483 c-13 -16 -12 -17 4 -4 16 13 21 21 13 21 -2 0 -10 -8 -17
-17z"/>
<path d="M7480 2455 c-7 -8 -16 -13 -19 -10 -4 2 -8 -2 -8 -10 0 -10 4 -12 12
-5 7 5 15 8 18 5 4 -3 5 -2 2 2 -3 3 0 12 6 20 6 7 9 13 6 13 -2 0 -10 -7 -17
-15z"/>
<path d="M7514 2452 c4 -7 2 -21 -5 -30 -12 -15 -11 -15 6 0 16 15 17 20 6 30
-11 11 -13 10 -7 0z"/>
<path d="M7586 2421 c-3 -4 4 -7 14 -6 27 2 33 10 10 12 -11 1 -22 -2 -24 -6z"/>
<path d="M7508 2379 c6 -9 10 -18 7 -21 -3 -3 6 -4 19 -4 14 1 28 5 31 8 4 4
-1 5 -12 3 -10 -1 -27 5 -38 14 -17 14 -18 14 -7 0z"/>
<path d="M7457 2370 c7 -8 20 -15 29 -16 9 -1 13 1 9 4 -4 4 -10 7 -13 7 -4 0
-14 4 -22 9 -12 7 -13 6 -3 -4z"/>
<path d="M7390 2340 c0 -5 5 -10 10 -10 6 0 10 5 10 10 0 6 -4 10 -10 10 -5 0
-10 -4 -10 -10z"/>
<path d="M7560 2335 c-7 -9 -11 -17 -9 -20 3 -2 10 5 17 15 14 24 10 26 -8 5z"/>
<path d="M7593 2343 c4 -3 -1 -16 -10 -27 -18 -21 -18 -21 4 -2 20 16 23 36 6
36 -4 0 -3 -3 0 -7z"/>
<path d="M7405 2280 c-2 -3 9 -6 25 -5 15 0 26 3 24 7 -5 8 -44 6 -49 -2z"/>
<path d="M7575 2279 c-3 -4 2 -6 10 -5 21 3 28 13 10 13 -9 0 -18 -4 -20 -8z"/>
<path d="M7480 2255 c-7 -9 -11 -17 -9 -20 3 -2 10 5 17 15 14 24 10 26 -8 5z"/>
<path d="M7513 2263 c4 -3 -1 -16 -10 -27 -18 -21 -18 -21 5 -2 24 21 29 36
10 36 -6 0 -8 -3 -5 -7z"/>
<path d="M7406 2245 c-11 -8 -15 -15 -9 -15 6 0 16 7 23 15 16 19 11 19 -14 0z"/>
<path d="M7570 2256 c0 -2 8 -10 18 -17 15 -13 16 -12 3 4 -13 16 -21 21 -21
13z"/>
<path d="M7539 2233 c-13 -16 -12 -17 4 -4 16 13 21 21 13 21 -2 0 -10 -8 -17
-17z"/>
<path d="M7430 2222 c0 -5 7 -9 15 -9 8 0 12 4 9 9 -3 4 -9 8 -15 8 -5 0 -9
-4 -9 -8z"/>
<path d="M7600 2220 c-9 -6 -10 -10 -3 -10 6 0 15 5 18 10 8 12 4 12 -15 0z"/>
<path d="M7297 2193 c-10 -9 -9 -23 1 -23 5 0 9 7 9 15 0 17 -1 18 -10 8z"/>
<path d="M7470 2196 c0 -2 8 -10 18 -17 15 -13 16 -12 3 4 -13 16 -21 21 -21
13z"/>
<path d="M7560 2175 c-7 -9 -11 -17 -9 -20 3 -2 10 5 17 15 14 24 10 26 -8 5z"/>
<path d="M7257 2152 c-10 -10 -17 -25 -17 -33 0 -8 6 -3 13 11 8 14 19 24 26
22 7 -1 10 2 6 8 -8 13 -9 13 -28 -8z"/>
<path d="M7434 2125 c0 -24 3 -42 5 -39 8 7 9 74 1 79 -3 2 -6 -16 -6 -40z"/>
<path d="M7469 2143 c-13 -16 -12 -17 4 -4 16 13 21 21 13 21 -2 0 -10 -8 -17
-17z"/>
<path d="M7380 2146 c0 -2 8 -10 18 -17 15 -13 16 -12 3 4 -13 16 -21 21 -21
13z"/>
<path d="M7268 2117 c-3 -19 -2 -25 4 -19 6 6 8 18 6 28 -3 14 -5 12 -10 -9z"/>
<path d="M7295 2129 c-4 -6 -5 -12 -2 -15 2 -3 7 2 10 11 7 17 1 20 -8 4z"/>
<path d="M7490 2126 c0 -2 7 -7 16 -10 8 -3 12 -2 9 4 -6 10 -25 14 -25 6z"/>
<path d="M450 2106 c0 -2 7 -7 16 -10 8 -3 12 -2 9 4 -6 10 -25 14 -25 6z"/>
<path d="M7230 2090 c-8 -5 -12 -12 -9 -15 4 -3 12 1 19 10 14 17 11 19 -10 5z"/>
<path d="M7286 2085 c-11 -8 -15 -15 -9 -15 6 0 16 7 23 15 16 19 11 19 -14 0z"/>
<path d="M7514 2086 c1 -8 5 -18 8 -22 4 -3 5 1 4 10 -1 8 -5 18 -8 22 -4 3
-5 -1 -4 -10z"/>
<path d="M7311 2067 c-13 -21 -12 -21 5 -5 10 10 16 20 13 22 -3 3 -11 -5 -18
-17z"/>
<path d="M7391 2087 c2 -1 13 -9 24 -17 19 -14 19 -14 6 3 -7 9 -18 17 -24 17
-6 0 -8 -1 -6 -3z"/>
<path d="M7551 2067 c-13 -21 -12 -21 5 -5 10 10 16 20 13 22 -3 3 -11 -5 -18
-17z"/>
<path d="M513 2055 c-3 -9 -3 -19 1 -22 3 -4 6 1 6 11 0 10 5 14 12 10 7 -4 8
-3 4 4 -10 16 -15 15 -23 -3z"/>
<path d="M7391 2053 c7 -12 15 -20 18 -17 3 2 -3 12 -13 22 -17 16 -18 16 -5
-5z"/>
<path d="M7254 2046 c1 -8 5 -18 8 -22 4 -3 5 1 4 10 -1 8 -5 18 -8 22 -4 3
-5 -1 -4 -10z"/>
<path d="M7494 2040 c0 -13 4 -16 10 -10 7 7 7 13 0 20 -6 6 -10 3 -10 -10z"/>
<path d="M7347 2039 c7 -7 15 -10 18 -7 3 3 -2 9 -12 12 -14 6 -15 5 -6 -5z"/>
<path d="M7430 2018 c0 -4 4 -8 9 -8 6 0 12 4 15 8 3 5 -1 9 -9 9 -8 0 -15 -4
-15 -9z"/>
<path d="M7519 2013 c-13 -16 -12 -17 4 -4 9 7 17 15 17 17 0 8 -8 3 -21 -13z"/>
<path d="M7110 2009 c0 -5 5 -7 10 -4 6 3 10 8 10 11 0 2 -4 4 -10 4 -5 0 -10
-5 -10 -11z"/>
<path d="M7369 2003 c-13 -16 -12 -17 4 -4 16 13 21 21 13 21 -2 0 -10 -8 -17
-17z"/>
<path d="M7213 1993 c0 -10 4 -10 16 -1 9 7 18 13 20 15 2 1 -5 1 -16 0 -11 0
-20 -7 -20 -14z"/>
<path d="M7400 2006 c0 -2 8 -10 18 -17 15 -13 16 -12 3 4 -13 16 -21 21 -21
13z"/>
<path d="M7473 1993 c0 -11 7 -20 14 -20 10 0 10 4 1 16 -7 9 -13 18 -15 20
-1 2 -1 -5 0 -16z"/>
<path d="M7096 1982 c-2 -4 -1 -14 4 -22 7 -11 9 -9 7 8 -1 24 -3 26 -11 14z"/>
<path d="M7146 1980 c5 -8 9 -18 9 -22 0 -3 3 -9 7 -13 3 -4 5 0 4 9 -1 9 -8
22 -16 29 -10 10 -11 9 -4 -3z"/>
<path d="M7269 1977 c6 -8 7 -18 3 -22 -4 -5 -1 -5 6 -1 10 6 10 11 1 22 -6 8
-14 14 -16 14 -3 0 0 -6 6 -13z"/>
<path d="M7347 1979 c7 -7 15 -10 18 -7 3 3 -2 9 -12 12 -14 6 -15 5 -6 -5z"/>
<path d="M7195 1962 c3 -3 0 -10 -5 -17 -7 -8 -5 -12 5 -12 8 0 13 3 10 5 -3
3 0 10 5 17 7 8 5 12 -5 12 -8 0 -13 -3 -10 -5z"/>
<path d="M7231 1947 c-13 -21 -12 -21 5 -5 10 10 16 20 13 22 -3 3 -11 -5 -18
-17z"/>
<path d="M7296 1953 c-6 -14 -5 -15 5 -6 7 7 10 15 7 18 -3 3 -9 -2 -12 -12z"/>
<path d="M7020 1956 c0 -2 7 -6 15 -10 8 -3 15 -1 15 4 0 6 -7 10 -15 10 -8 0
-15 -2 -15 -4z"/>
<path d="M7069 1943 c-13 -16 -12 -17 4 -4 16 13 21 21 13 21 -2 0 -10 -8 -17
-17z"/>
<path d="M575 1940 c-3 -5 -1 -10 4 -10 6 0 11 5 11 10 0 6 -2 10 -4 10 -3 0
-8 -4 -11 -10z"/>
<path d="M7392 1931 c7 -9 13 -18 15 -20 1 -2 1 5 0 16 0 11 -7 20 -14 20 -10
0 -10 -4 -1 -16z"/>
<path d="M7429 1937 c6 -8 9 -16 6 -19 -3 -2 2 -5 10 -5 13 0 13 3 -2 19 -19
21 -31 25 -14 5z"/>
<path d="M7086 1925 c-18 -14 -18 -14 1 -12 11 0 20 7 20 14 0 7 -1 13 -1 13
-1 0 -9 -7 -20 -15z"/>
<path d="M7133 1927 c0 -7 9 -14 20 -14 11 -1 18 -1 16 0 -2 2 -11 8 -20 15
-12 9 -16 9 -16 -1z"/>
<path d="M7000 1926 c0 -2 8 -10 18 -17 15 -13 16 -12 3 4 -13 16 -21 21 -21
13z"/>
<path d="M7050 1896 c0 -2 8 -10 18 -17 15 -13 16 -12 3 4 -13 16 -21 21 -21
13z"/>
<path d="M7296 1887 c3 -10 9 -15 12 -12 3 3 0 11 -7 18 -10 9 -11 8 -5 -6z"/>
<path d="M7366 1885 c-11 -8 -15 -15 -9 -15 6 0 16 7 23 15 16 19 11 19 -14 0z"/>
<path d="M6956 1858 c3 -5 10 -6 15 -3 13 9 11 12 -6 12 -8 0 -12 -4 -9 -9z"/>
<path d="M6993 1863 c4 -3 1 -13 -6 -22 -11 -14 -10 -14 5 -2 16 12 16 31 1
31 -4 0 -3 -3 0 -7z"/>
<path d="M7026 1858 c3 -4 9 -8 15 -8 5 0 9 4 9 8 0 5 -7 9 -15 9 -8 0 -12 -4
-9 -9z"/>
<path d="M7190 1858 c0 -4 4 -8 9 -8 6 0 12 4 15 8 3 5 -1 9 -9 9 -8 0 -15 -4
-15 -9z"/>
<path d="M7103 1845 c17 -19 17 -19 35 0 16 18 16 18 0 6 -15 -11 -21 -11 -35
0 -17 12 -17 12 0 -6z"/>
<path d="M7059 1833 c-13 -16 -12 -17 4 -4 16 13 21 21 13 21 -2 0 -10 -8 -17
-17z"/>
<path d="M7160 1846 c0 -2 8 -10 18 -17 15 -13 16 -12 3 4 -13 16 -21 21 -21
13z"/>
<path d="M7233 1833 c0 -11 7 -20 14 -20 10 0 10 4 1 16 -7 9 -13 18 -15 20
-1 2 -1 -5 0 -16z"/>
<path d="M7025 1800 c10 -11 20 -20 23 -20 3 0 -3 9 -13 20 -10 11 -20 20 -23
20 -3 0 3 -9 13 -20z"/>
<path d="M6959 1798 c-5 -18 -6 -38 -1 -34 7 8 12 36 6 36 -2 0 -4 -1 -5 -2z"/>
<path d="M7071 1773 c7 -12 15 -20 18 -17 3 2 -3 12 -13 22 -17 16 -18 16 -5
-5z"/>
<path d="M7160 1775 c-7 -9 -11 -17 -9 -20 3 -2 10 5 17 15 14 24 10 26 -8 5z"/>
<path d="M7240 1775 c-7 -9 -11 -17 -9 -20 3 -2 10 5 17 15 14 24 10 26 -8 5z"/>
<path d="M6911 1767 c2 -1 13 -9 24 -17 19 -14 19 -14 6 3 -7 9 -18 17 -24 17
-6 0 -8 -1 -6 -3z"/>
<path d="M7030 1758 c0 -6 3 -8 7 -5 3 4 13 1 22 -6 14 -11 14 -10 2 6 -15 20
-31 22 -31 5z"/>
<path d="M7179 1753 c-13 -16 -12 -17 4 -4 9 7 17 15 17 17 0 8 -8 3 -21 -13z"/>
<path d="M6866 1742 c-3 -5 1 -9 9 -9 8 0 12 4 9 9 -3 4 -7 8 -9 8 -2 0 -6 -4
-9 -8z"/>
<path d="M6914 1733 c16 -20 36 -23 36 -6 0 4 -3 3 -7 0 -3 -4 -16 1 -27 10
-21 18 -21 18 -2 -4z"/>
<path d="M7106 1742 c-2 -4 4 -8 14 -8 10 0 16 4 14 8 -3 4 -9 8 -14 8 -5 0
-11 -4 -14 -8z"/>
<path d="M7014 1720 c0 -13 4 -16 10 -10 7 7 7 13 0 20 -6 6 -10 3 -10 -10z"/>
<path d="M7069 1703 c-13 -16 -12 -17 4 -4 16 13 21 21 13 21 -2 0 -10 -8 -17
-17z"/>
<path d="M7193 1705 c0 -8 4 -12 9 -9 5 3 6 10 3 15 -9 13 -12 11 -12 -6z"/>
<path d="M6889 1683 c-13 -16 -12 -17 4 -4 16 13 21 21 13 21 -2 0 -10 -8 -17
-17z"/>
<path d="M6943 1685 c17 -19 17 -19 35 0 16 18 16 18 0 6 -15 -11 -21 -11 -35
0 -17 12 -17 12 0 -6z"/>
<path d="M6915 1671 c-3 -5 -2 -12 3 -15 5 -3 9 1 9 9 0 17 -3 19 -12 6z"/>
<path d="M6855 1660 c3 -5 8 -10 11 -10 2 0 4 5 4 10 0 6 -5 10 -11 10 -5 0
-7 -4 -4 -10z"/>
</g>
</svg>
